<?xml version="1.0" encoding="UTF-8"?>
<svg width="173.58" height="173.67" version="1.1" viewBox="0 0 45.927 45.949" xmlns="http://www.w3.org/2000/svg"><g transform="translate(-58.889 -31.048)"><g fill="#eee" stroke-width=".26458"><path d="m72.471 48.003q0 1.2788 0.88194 2.2049 0.90399 0.90399 2.2049 0.90399 1.2788 0 2.1828-0.90399t0.90399-2.2049-0.90399-2.1828q-0.90399-0.90399-2.1828-0.90399-1.3009 0-2.2049 0.90399-0.88194 0.88194-0.88194 2.1828zm12.744 0q0 1.2788 0.88194 2.2049 0.90399 0.90399 2.2049 0.90399 1.2788 0 2.1828-0.90399 0.92604-0.92604 0.92604-2.2049 0-1.3009-0.92604-2.1828-0.90399-0.90399-2.1828-0.90399-1.2788 0-2.1828 0.90399-0.90399 0.88194-0.90399 2.1828zm-23.151 6.0634q0-8.2241 5.7988-14.023 5.7988-5.8208 14.001-5.8208 8.2241 0 14.001 5.8208 5.7767 5.7988 5.7767 14.023 0 8.2021-5.7767 13.979-5.7767 5.7767-14.001 5.7767-8.2021 0-14.001-5.7767t-5.7988-13.979zm8.18 6.1957q0.79375 1.2347 1.9182 2.3592 4.0128 3.9908 9.7014 3.9908t9.7014-3.9908q1.1024-1.1245 1.9182-2.3592l-2.5356-1.5875q-0.63941 0.97014-1.4993 1.83-3.1309 3.1309-7.5847 3.1309-4.4538 0-7.5847-3.1309-0.88194-0.8599-1.4993-1.808z"/></g></g></svg>
